<mxfile host="65bd71144e">
    <diagram id="01ow3ZPF1ok3aJyIHU1U" name="Page-1">
        <mxGraphModel dx="2035" dy="1220" grid="1" gridSize="10" guides="1" tooltips="1" connect="1" arrows="1" fold="1" page="1" pageScale="1" pageWidth="827" pageHeight="1169" background="#FFFFFF" math="0" shadow="0">
            <root>
                <mxCell id="0"/>
                <mxCell id="1" parent="0"/>
                <mxCell id="6" value="&lt;font style=&quot;font-size: 12px&quot;&gt;Cenário - Criar Includes do Evento&lt;/font&gt;" style="shape=umlFrame;whiteSpace=wrap;html=1;fontSize=16;align=left;width=290;height=20;fillColor=#f0a30a;strokeColor=#BD7000;fontColor=#000000;" parent="1" vertex="1">
                    <mxGeometry x="174" y="359" width="480" height="520" as="geometry"/>
                </mxCell>
                <mxCell id="17" value="" style="rounded=0;whiteSpace=wrap;html=1;fontSize=12;align=left;fillColor=#ffe6cc;strokeColor=#d79b00;" parent="1" vertex="1">
                    <mxGeometry x="314" y="429" width="280" height="410" as="geometry"/>
                </mxCell>
                <mxCell id="2" value="Domínio" style="text;html=1;strokeColor=none;fillColor=none;align=center;verticalAlign=middle;whiteSpace=wrap;rounded=0;fontSize=24;fontColor=#000000;" parent="1" vertex="1">
                    <mxGeometry x="174" y="289" width="90" height="20" as="geometry"/>
                </mxCell>
                <mxCell id="3" value="CARACAS - Sistema de Gestão de Eventos e submissão de material" style="text;html=1;strokeColor=none;fillColor=none;align=left;verticalAlign=middle;whiteSpace=wrap;rounded=0;fontSize=16;fontColor=#000000;" parent="1" vertex="1">
                    <mxGeometry x="174" y="309" width="360" height="50" as="geometry"/>
                </mxCell>
                <mxCell id="7" value="&lt;font style=&quot;font-size: 12px&quot; color=&quot;#000000&quot;&gt;SECRETARIA&lt;/font&gt;" style="shape=umlActor;verticalLabelPosition=bottom;verticalAlign=top;html=1;fontSize=16;strokeColor=#000000;fillColor=none;" parent="1" vertex="1">
                    <mxGeometry x="224" y="604" width="30" height="60" as="geometry"/>
                </mxCell>
                <mxCell id="9" value="&lt;font color=&quot;#000000&quot;&gt;CADASTRAR &lt;br&gt;TIPOS&lt;/font&gt;" style="ellipse;whiteSpace=wrap;html=1;fontSize=12;align=center;strokeColor=#000000;fillColor=#FFFFFF;" parent="1" vertex="1">
                    <mxGeometry x="397" y="469" width="140" height="70" as="geometry"/>
                </mxCell>
                <mxCell id="10" value="&lt;font color=&quot;#000000&quot;&gt;CADASTRAR &lt;br&gt;CATEGORIAS&lt;/font&gt;" style="ellipse;whiteSpace=wrap;html=1;fontSize=12;align=center;strokeColor=#000000;fillColor=#FFFFFF;" parent="1" vertex="1">
                    <mxGeometry x="397" y="589" width="140" height="70" as="geometry"/>
                </mxCell>
                <mxCell id="11" value="&lt;font color=&quot;#000000&quot;&gt;CADASTRAR &lt;br&gt;ATIVIDADES&lt;/font&gt;" style="ellipse;whiteSpace=wrap;html=1;fontSize=12;align=center;strokeColor=#000000;fillColor=#FFFFFF;" parent="1" vertex="1">
                    <mxGeometry x="397" y="709" width="140" height="70" as="geometry"/>
                </mxCell>
                <mxCell id="21" value="" style="endArrow=classic;html=1;entryX=0;entryY=0.5;entryDx=0;entryDy=0;exitX=1;exitY=0.3333333333333333;exitDx=0;exitDy=0;exitPerimeter=0;strokeColor=#000000;" edge="1" parent="1" source="7" target="9">
                    <mxGeometry x="174" y="289" width="50" height="50" as="geometry">
                        <mxPoint x="334" y="619" as="sourcePoint"/>
                        <mxPoint x="384" y="569" as="targetPoint"/>
                    </mxGeometry>
                </mxCell>
                <mxCell id="22" value="" style="endArrow=classic;html=1;strokeColor=#000000;entryX=0;entryY=0.5;entryDx=0;entryDy=0;exitX=1;exitY=0.3333333333333333;exitDx=0;exitDy=0;exitPerimeter=0;" edge="1" parent="1" source="7" target="10">
                    <mxGeometry x="174" y="289" width="50" height="50" as="geometry">
                        <mxPoint x="334" y="619" as="sourcePoint"/>
                        <mxPoint x="384" y="569" as="targetPoint"/>
                    </mxGeometry>
                </mxCell>
                <mxCell id="23" value="" style="endArrow=classic;html=1;strokeColor=#000000;entryX=0;entryY=0.5;entryDx=0;entryDy=0;exitX=1;exitY=0.3333333333333333;exitDx=0;exitDy=0;exitPerimeter=0;" edge="1" parent="1" source="7" target="11">
                    <mxGeometry x="174" y="289" width="50" height="50" as="geometry">
                        <mxPoint x="334" y="619" as="sourcePoint"/>
                        <mxPoint x="384" y="569" as="targetPoint"/>
                    </mxGeometry>
                </mxCell>
            </root>
        </mxGraphModel>
    </diagram>
</mxfile>